<?xml version="1.0" encoding="UTF-8"?>
<svg xmlns="http://www.w3.org/2000/svg" xmlns:xlink="http://www.w3.org/1999/xlink" width="20pt" height="12pt" viewBox="0 0 20 12" version="1.1">
<g id="surface1">
<path style=" stroke:none;fill-rule:nonzero;fill:rgb(21.960784%,50.588235%,18.431373%);fill-opacity:1;" d="M 5.484375 0 L 14.253906 0 C 17.285156 0 19.738281 2.75 19.738281 6.136719 C 19.738281 9.523438 17.285156 12.273438 14.253906 12.273438 L 5.484375 12.273438 C 2.453125 12.273438 0 9.523438 0 6.136719 C 0 2.75 2.453125 0 5.484375 0 Z M 5.484375 0 "/>
<path style=" stroke:none;fill-rule:nonzero;fill:rgb(100%,100%,100%);fill-opacity:1;" d="M 4.464844 8.40625 C 4.769531 8.40625 5.066406 8.332031 5.34375 8.191406 C 5.621094 8.058594 5.871094 7.851562 6.058594 7.597656 L 6.589844 8.207031 C 6.320312 8.539062 5.992188 8.800781 5.628906 8.96875 C 5.253906 9.152344 4.847656 9.246094 4.441406 9.246094 C 4.066406 9.253906 3.691406 9.167969 3.347656 9.007812 C 2.296875 8.539062 1.613281 7.398438 1.625 6.136719 C 1.617188 4.878906 2.296875 3.75 3.335938 3.277344 C 3.679688 3.117188 4.054688 3.03125 4.429688 3.035156 C 4.847656 3.035156 5.257812 3.125 5.636719 3.3125 C 6.003906 3.484375 6.332031 3.746094 6.59375 4.074219 L 6.042969 4.6875 C 5.84375 4.425781 5.59375 4.214844 5.308594 4.074219 C 5.03125 3.929688 4.722656 3.863281 4.421875 3.863281 C 4.148438 3.855469 3.878906 3.914062 3.628906 4.03125 C 3.398438 4.144531 3.1875 4.308594 3.015625 4.515625 C 2.453125 5.195312 2.289062 6.171875 2.59375 7.035156 C 2.789062 7.578125 3.175781 8.007812 3.660156 8.230469 C 3.917969 8.347656 4.1875 8.40625 4.464844 8.40625 Z M 4.464844 8.40625 "/>
<path style=" stroke:none;fill-rule:nonzero;fill:rgb(100%,100%,100%);fill-opacity:1;" d="M 7.8125 3.925781 L 7.8125 3.125 L 12.390625 3.125 L 12.390625 3.925781 L 10.503906 3.925781 L 10.503906 9.144531 L 9.699219 9.144531 L 9.699219 3.925781 Z M 7.8125 3.925781 "/>
<path style=" stroke:none;fill-rule:nonzero;fill:rgb(100%,100%,100%);fill-opacity:1;" d="M 13.835938 3.125 L 16.175781 3.125 C 16.628906 3.105469 17.074219 3.253906 17.4375 3.5625 C 17.753906 3.839844 17.925781 4.273438 17.917969 4.71875 C 17.917969 4.992188 17.851562 5.257812 17.71875 5.488281 C 17.578125 5.714844 17.394531 5.902344 17.167969 6.019531 C 17.4375 6.125 17.679688 6.324219 17.859375 6.574219 C 18.035156 6.816406 18.128906 7.121094 18.121094 7.4375 C 18.132812 7.910156 17.941406 8.363281 17.609375 8.660156 C 17.230469 8.992188 16.75 9.160156 16.273438 9.128906 L 13.835938 9.128906 Z M 16.117188 3.894531 L 14.644531 3.894531 L 14.644531 5.683594 L 16.117188 5.683594 C 16.375 5.695312 16.628906 5.613281 16.839844 5.445312 C 17.019531 5.285156 17.121094 5.039062 17.109375 4.785156 C 17.121094 4.53125 17.019531 4.292969 16.839844 4.132812 C 16.628906 3.964844 16.375 3.878906 16.117188 3.894531 Z M 16.199219 8.378906 C 16.484375 8.394531 16.765625 8.300781 16.992188 8.105469 C 17.1875 7.9375 17.300781 7.671875 17.300781 7.394531 C 17.300781 7.109375 17.1875 6.851562 16.992188 6.675781 C 16.765625 6.484375 16.484375 6.386719 16.199219 6.402344 L 14.644531 6.402344 L 14.644531 8.378906 Z M 16.199219 8.378906 "/>
</g>
</svg>
