<?xml version="1.0" encoding="UTF-8"?>
<svg xmlns="http://www.w3.org/2000/svg" xmlns:xlink="http://www.w3.org/1999/xlink" width="20pt" height="12pt" viewBox="0 0 20 12" version="1.1">
<g id="surface1">
<path style=" stroke:none;fill-rule:nonzero;fill:rgb(21.960784%,50.588235%,18.431373%);fill-opacity:1;" d="M 5.484375 0 L 14.253906 0 C 17.285156 0 19.738281 2.75 19.738281 6.136719 C 19.738281 9.523438 17.285156 12.273438 14.253906 12.273438 L 5.484375 12.273438 C 2.453125 12.273438 0 9.523438 0 6.136719 C 0 2.75 2.453125 0 5.484375 0 Z M 5.484375 0 "/>
<path style=" stroke:none;fill-rule:nonzero;fill:rgb(100%,100%,100%);fill-opacity:1;" d="M 7.324219 8.40625 C 7.628906 8.40625 7.929688 8.332031 8.207031 8.191406 C 8.484375 8.058594 8.726562 7.851562 8.921875 7.597656 L 9.453125 8.207031 C 9.183594 8.535156 8.855469 8.789062 8.496094 8.960938 C 8.121094 9.140625 7.71875 9.238281 7.308594 9.238281 C 6.933594 9.242188 6.5625 9.15625 6.214844 8.996094 C 5.171875 8.527344 4.480469 7.398438 4.488281 6.136719 C 4.476562 4.878906 5.15625 3.75 6.195312 3.277344 C 6.539062 3.117188 6.914062 3.03125 7.289062 3.035156 C 7.703125 3.035156 8.117188 3.125 8.496094 3.3125 C 8.859375 3.484375 9.191406 3.746094 9.457031 4.074219 L 8.90625 4.6875 C 8.703125 4.425781 8.453125 4.214844 8.167969 4.074219 C 7.890625 3.929688 7.585938 3.863281 7.277344 3.863281 C 7.003906 3.855469 6.738281 3.914062 6.488281 4.03125 C 6.25 4.140625 6.035156 4.304688 5.855469 4.507812 C 5.292969 5.183594 5.128906 6.167969 5.4375 7.027344 C 5.632812 7.570312 6.019531 7.996094 6.496094 8.21875 C 6.757812 8.347656 7.042969 8.40625 7.324219 8.40625 Z M 7.324219 8.40625 "/>
<path style=" stroke:none;fill-rule:nonzero;fill:rgb(100%,100%,100%);fill-opacity:1;" d="M 10.671875 3.925781 L 10.671875 3.125 L 15.25 3.125 L 15.25 3.925781 L 13.363281 3.925781 L 13.363281 9.144531 L 12.554688 9.144531 L 12.554688 3.925781 Z M 10.671875 3.925781 "/>
</g>
</svg>
