<?xml version="1.0" encoding="UTF-8"?>
<svg xmlns="http://www.w3.org/2000/svg" xmlns:xlink="http://www.w3.org/1999/xlink" width="20pt" height="12pt" viewBox="0 0 20 12" version="1.1">
<g id="surface1">
<path style=" stroke:none;fill-rule:nonzero;fill:rgb(21.960784%,50.588235%,18.431373%);fill-opacity:1;" d="M 5.484375 0 L 14.253906 0 C 17.285156 0 19.738281 2.75 19.738281 6.136719 C 19.738281 9.523438 17.285156 12.273438 14.253906 12.273438 L 5.484375 12.273438 C 2.453125 12.273438 0 9.523438 0 6.136719 C 0 2.75 2.453125 0 5.484375 0 Z M 5.484375 0 "/>
<path style=" stroke:none;fill-rule:nonzero;fill:rgb(100%,100%,100%);fill-opacity:1;" d="M 10.21875 8.40625 C 10.519531 8.40625 10.820312 8.332031 11.097656 8.191406 C 11.375 8.058594 11.621094 7.851562 11.816406 7.597656 L 12.347656 8.207031 C 12.074219 8.539062 11.746094 8.800781 11.382812 8.96875 C 11.007812 9.152344 10.601562 9.246094 10.191406 9.246094 C 9.816406 9.253906 9.445312 9.167969 9.097656 9.007812 C 8.058594 8.539062 7.378906 7.402344 7.378906 6.148438 C 7.378906 4.894531 8.058594 3.765625 9.097656 3.292969 C 9.445312 3.125 9.816406 3.046875 10.191406 3.046875 C 10.609375 3.046875 11.019531 3.144531 11.40625 3.324219 C 11.769531 3.496094 12.09375 3.753906 12.359375 4.085938 L 11.8125 4.703125 C 11.609375 4.4375 11.359375 4.230469 11.078125 4.085938 C 10.792969 3.945312 10.492188 3.871094 10.183594 3.871094 C 9.914062 3.867188 9.648438 3.925781 9.394531 4.042969 C 9.160156 4.15625 8.949219 4.308594 8.773438 4.515625 C 8.589844 4.726562 8.449219 4.96875 8.351562 5.234375 C 8.148438 5.816406 8.148438 6.457031 8.351562 7.035156 C 8.546875 7.578125 8.933594 8.007812 9.417969 8.230469 C 9.667969 8.347656 9.941406 8.40625 10.21875 8.40625 Z M 10.21875 8.40625 "/>
</g>
</svg>
