<?xml version="1.0" encoding="UTF-8"?>
<svg xmlns="http://www.w3.org/2000/svg" xmlns:xlink="http://www.w3.org/1999/xlink" width="21pt" height="12pt" viewBox="0 0 21 12" version="1.1">
<g id="surface1">
<path style=" stroke:none;fill-rule:nonzero;fill:rgb(21.960784%,50.588235%,18.431373%);fill-opacity:1;" d="M 5.835938 0 L 15.164062 0 C 18.390625 0 21 2.75 21 6.136719 C 21 9.523438 18.390625 12.273438 15.164062 12.273438 L 5.835938 12.273438 C 2.609375 12.273438 0 9.523438 0 6.136719 C 0 2.75 2.609375 0 5.835938 0 Z M 5.835938 0 "/>
<path style=" stroke:none;fill-rule:nonzero;fill:rgb(100%,100%,100%);fill-opacity:1;" d="M 5.453125 9.140625 L 5.453125 3.132812 L 9.664062 3.132812 L 9.664062 3.921875 L 6.3125 3.921875 L 6.3125 5.726562 L 8.515625 5.726562 L 8.515625 6.5 L 6.3125 6.5 L 6.3125 8.339844 L 9.699219 8.339844 L 9.699219 9.140625 Z M 5.453125 9.140625 "/>
<path style=" stroke:none;fill-rule:nonzero;fill:rgb(100%,100%,100%);fill-opacity:1;" d="M 11.398438 9.140625 L 11.398438 3.132812 L 12.25 3.132812 L 12.25 8.347656 L 15.546875 8.347656 L 15.546875 9.140625 Z M 11.398438 9.140625 "/>
</g>
</svg>
