<?xml version="1.0" encoding="UTF-8"?>
<svg xmlns="http://www.w3.org/2000/svg" xmlns:xlink="http://www.w3.org/1999/xlink" width="20pt" height="12pt" viewBox="0 0 20 12" version="1.1">
<g id="surface1">
<path style=" stroke:none;fill-rule:evenodd;fill:rgb(21.960784%,50.588235%,18.431373%);fill-opacity:1;" d="M 5.484375 12.273438 C 2.457031 12.261719 0.0117188 9.523438 0 6.136719 C 0.0117188 2.75 2.457031 0.0117188 5.484375 0 L 14.253906 0 C 17.28125 0.0117188 19.726562 2.75 19.738281 6.136719 C 19.726562 9.523438 17.28125 12.261719 14.253906 12.273438 "/>
<path style=" stroke:none;fill-rule:nonzero;fill:rgb(100%,100%,100%);fill-opacity:1;" d="M 2.050781 9.144531 L 2.050781 3.125 L 4.535156 3.125 C 5 3.105469 5.453125 3.285156 5.804688 3.632812 C 6.136719 3.964844 6.316406 4.4375 6.304688 4.933594 C 6.316406 5.421875 6.140625 5.890625 5.8125 6.222656 C 5.464844 6.5625 5.011719 6.742188 4.546875 6.722656 L 2.851562 6.722656 L 2.851562 9.144531 Z M 4.449219 3.925781 L 2.851562 3.925781 L 2.851562 5.960938 L 4.449219 5.960938 C 4.722656 5.980469 4.996094 5.875 5.210938 5.671875 C 5.390625 5.488281 5.496094 5.214844 5.484375 4.933594 C 5.496094 4.65625 5.398438 4.378906 5.210938 4.199219 C 4.996094 4 4.722656 3.898438 4.449219 3.921875 Z M 4.449219 3.925781 "/>
<path style=" stroke:none;fill-rule:nonzero;fill:rgb(100%,100%,100%);fill-opacity:1;" d="M 7.890625 9.144531 L 7.890625 3.125 L 8.695312 3.125 L 8.695312 8.347656 L 11.785156 8.347656 L 11.785156 9.144531 Z M 7.890625 9.144531 "/>
<path style=" stroke:none;fill-rule:nonzero;fill:rgb(100%,100%,100%);fill-opacity:1;" d="M 13.367188 9.144531 L 13.367188 3.125 L 15.808594 3.125 C 16.28125 3.105469 16.742188 3.285156 17.101562 3.621094 C 17.429688 3.945312 17.613281 4.421875 17.597656 4.90625 C 17.605469 5.277344 17.496094 5.640625 17.296875 5.933594 C 17.089844 6.226562 16.8125 6.441406 16.488281 6.546875 L 17.6875 9.128906 L 16.796875 9.128906 L 15.6875 6.679688 L 14.175781 6.679688 L 14.175781 9.128906 Z M 15.738281 3.925781 L 14.175781 3.925781 L 14.175781 5.933594 L 15.738281 5.933594 C 16.015625 5.949219 16.28125 5.855469 16.492188 5.65625 C 16.679688 5.476562 16.78125 5.210938 16.769531 4.933594 C 16.78125 4.65625 16.679688 4.390625 16.492188 4.203125 C 16.28125 4.003906 16.015625 3.910156 15.738281 3.921875 Z M 15.738281 3.925781 "/>
</g>
</svg>
