<?xml version="1.0" encoding="UTF-8"?>
<svg xmlns="http://www.w3.org/2000/svg" xmlns:xlink="http://www.w3.org/1999/xlink" width="20pt" height="12pt" viewBox="0 0 20 12" version="1.1">
<g id="surface1">
<path style=" stroke:none;fill-rule:nonzero;fill:rgb(21.960784%,50.588235%,18.431373%);fill-opacity:1;" d="M 5.484375 0 L 14.253906 0 C 17.285156 0 19.738281 2.75 19.738281 6.136719 C 19.738281 9.523438 17.285156 12.273438 14.253906 12.273438 L 5.484375 12.273438 C 2.453125 12.273438 0 9.523438 0 6.136719 C 0 2.75 2.453125 0 5.484375 0 Z M 5.484375 0 "/>
<path style=" stroke:none;fill-rule:nonzero;fill:rgb(100%,100%,100%);fill-opacity:1;" d="M 4.996094 9.144531 L 4.996094 3.125 L 7.488281 3.125 C 7.953125 3.105469 8.410156 3.285156 8.757812 3.632812 C 9.082031 3.964844 9.261719 4.441406 9.242188 4.933594 C 9.257812 5.421875 9.078125 5.890625 8.753906 6.222656 C 8.402344 6.5625 7.953125 6.742188 7.488281 6.722656 L 5.804688 6.722656 L 5.804688 9.144531 Z M 7.402344 3.925781 L 5.804688 3.925781 L 5.804688 5.960938 L 7.402344 5.960938 C 7.671875 5.976562 7.941406 5.878906 8.152344 5.683594 C 8.335938 5.492188 8.433594 5.21875 8.425781 4.941406 C 8.433594 4.660156 8.335938 4.390625 8.152344 4.203125 C 7.941406 4.003906 7.671875 3.910156 7.402344 3.921875 Z M 7.402344 3.925781 "/>
<path style=" stroke:none;fill-rule:nonzero;fill:rgb(100%,100%,100%);fill-opacity:1;" d="M 10.839844 9.144531 L 10.839844 3.125 L 11.648438 3.125 L 11.648438 8.347656 L 14.742188 8.347656 L 14.742188 9.144531 Z M 10.839844 9.144531 "/>
</g>
</svg>
