<?xml version="1.0" encoding="UTF-8"?>
<svg xmlns="http://www.w3.org/2000/svg" xmlns:xlink="http://www.w3.org/1999/xlink" width="20pt" height="12pt" viewBox="0 0 20 12" version="1.1">
<g id="surface1">
<path style=" stroke:none;fill-rule:evenodd;fill:rgb(21.960784%,50.588235%,18.431373%);fill-opacity:1;" d="M 14.253906 12.273438 L 5.484375 12.273438 C 2.46875 12.273438 0 9.507812 0 6.136719 C 0 2.765625 2.46875 0 5.484375 0 L 14.253906 0 C 17.269531 0 19.738281 2.765625 19.738281 6.136719 C 19.738281 9.507812 17.269531 12.273438 14.253906 12.273438 Z M 14.253906 12.273438 "/>
<path style=" stroke:none;fill-rule:nonzero;fill:rgb(100%,100%,100%);fill-opacity:1;" d="M 4.8125 9.1875 L 4.765625 3.175781 L 7.253906 3.148438 C 7.769531 3.144531 8.199219 3.300781 8.527344 3.632812 C 8.855469 3.96875 9.015625 4.398438 9.027344 4.933594 C 9.03125 5.460938 8.871094 5.886719 8.542969 6.226562 C 8.222656 6.558594 7.796875 6.734375 7.28125 6.738281 L 5.601562 6.753906 L 5.621094 9.183594 Z M 7.171875 3.941406 L 5.578125 3.953125 L 5.59375 5.992188 L 7.183594 5.976562 C 7.5 5.976562 7.75 5.878906 7.929688 5.6875 C 8.117188 5.503906 8.214844 5.253906 8.207031 4.941406 C 8.203125 4.632812 8.109375 4.390625 7.921875 4.207031 C 7.730469 4.023438 7.484375 3.9375 7.171875 3.941406 Z M 7.171875 3.941406 "/>
<path style=" stroke:none;fill-rule:nonzero;fill:rgb(100%,100%,100%);fill-opacity:1;" d="M 10.65625 9.125 L 10.601562 3.109375 L 13.042969 3.085938 C 13.574219 3.078125 14.007812 3.238281 14.339844 3.570312 C 14.667969 3.894531 14.84375 4.320312 14.847656 4.847656 C 14.847656 5.242188 14.75 5.585938 14.554688 5.878906 C 14.359375 6.167969 14.09375 6.382812 13.753906 6.507812 L 14.976562 9.085938 L 14.082031 9.09375 L 12.945312 6.636719 L 11.4375 6.652344 L 11.457031 9.121094 Z M 12.984375 3.878906 L 11.414062 3.894531 L 11.429688 5.902344 L 13 5.886719 C 13.3125 5.886719 13.5625 5.789062 13.753906 5.597656 C 13.9375 5.410156 14.035156 5.167969 14.035156 4.867188 C 14.03125 4.566406 13.933594 4.324219 13.742188 4.140625 C 13.546875 3.964844 13.292969 3.871094 12.984375 3.878906 Z M 12.984375 3.878906 "/>
</g>
</svg>
