<?xml version="1.0" encoding="UTF-8"?>
<svg xmlns="http://www.w3.org/2000/svg" xmlns:xlink="http://www.w3.org/1999/xlink" width="20pt" height="12pt" viewBox="0 0 20 12" version="1.1">
<g id="surface1">
<path style=" stroke:none;fill-rule:evenodd;fill:rgb(21.960784%,50.588235%,18.431373%);fill-opacity:1;" d="M 14.253906 12.273438 L 5.484375 12.273438 C 2.46875 12.273438 0 9.507812 0 6.136719 C 0 2.765625 2.46875 0 5.484375 0 L 14.253906 0 C 17.269531 0 19.738281 2.765625 19.738281 6.136719 C 19.738281 9.507812 17.269531 12.273438 14.253906 12.273438 Z M 14.253906 12.273438 "/>
<path style=" stroke:none;fill-rule:nonzero;fill:rgb(100%,100%,100%);fill-opacity:1;" d="M 4.675781 3.984375 L 4.671875 3.183594 L 9.25 3.136719 L 9.257812 3.9375 L 7.371094 3.953125 L 7.410156 9.167969 L 6.605469 9.179688 L 6.5625 3.964844 Z M 4.675781 3.984375 "/>
<path style=" stroke:none;fill-rule:nonzero;fill:rgb(100%,100%,100%);fill-opacity:1;" d="M 10.746094 9.128906 L 10.695312 3.121094 L 13.136719 3.09375 C 13.667969 3.089844 14.097656 3.25 14.433594 3.578125 C 14.761719 3.90625 14.9375 4.332031 14.941406 4.859375 C 14.941406 5.253906 14.847656 5.597656 14.648438 5.886719 C 14.453125 6.179688 14.1875 6.390625 13.851562 6.519531 L 15.070312 9.09375 L 14.175781 9.101562 L 13.042969 6.648438 L 11.527344 6.664062 L 11.550781 9.128906 Z M 13.074219 3.886719 L 11.507812 3.90625 L 11.523438 5.914062 L 13.089844 5.898438 C 13.398438 5.890625 13.65625 5.796875 13.847656 5.609375 C 14.03125 5.421875 14.128906 5.171875 14.125 4.878906 C 14.125 4.574219 14.019531 4.332031 13.832031 4.148438 C 13.636719 3.972656 13.382812 3.882812 13.074219 3.886719 Z M 13.074219 3.886719 "/>
</g>
</svg>
