<?xml version="1.0" encoding="UTF-8"?>
<svg xmlns="http://www.w3.org/2000/svg" xmlns:xlink="http://www.w3.org/1999/xlink" width="20pt" height="12pt" viewBox="0 0 20 12" version="1.1">
<g id="surface1">
<path style=" stroke:none;fill-rule:nonzero;fill:rgb(21.960784%,50.588235%,18.431373%);fill-opacity:1;" d="M 5.484375 0 L 14.253906 0 C 17.285156 0 19.738281 2.75 19.738281 6.136719 C 19.738281 9.523438 17.285156 12.273438 14.253906 12.273438 L 5.484375 12.273438 C 2.453125 12.273438 0 9.523438 0 6.136719 C 0 2.75 2.453125 0 5.484375 0 Z M 5.484375 0 "/>
<path style=" stroke:none;fill-rule:nonzero;fill:rgb(100%,100%,100%);fill-opacity:1;" d="M 4.71875 3.925781 L 4.71875 3.125 L 9.304688 3.125 L 9.304688 3.925781 L 7.402344 3.925781 L 7.402344 9.144531 L 6.605469 9.144531 L 6.605469 3.925781 Z M 4.71875 3.925781 "/>
<path style=" stroke:none;fill-rule:nonzero;fill:rgb(100%,100%,100%);fill-opacity:1;" d="M 10.742188 3.125 L 13.070312 3.125 C 13.523438 3.105469 13.96875 3.253906 14.328125 3.5625 C 14.644531 3.839844 14.816406 4.273438 14.800781 4.71875 C 14.808594 4.992188 14.734375 5.261719 14.601562 5.488281 C 14.46875 5.714844 14.277344 5.902344 14.050781 6.019531 C 14.324219 6.125 14.566406 6.324219 14.746094 6.574219 C 14.914062 6.816406 15.007812 7.121094 15.007812 7.4375 C 15.011719 7.910156 14.828125 8.363281 14.5 8.660156 C 14.117188 8.996094 13.640625 9.167969 13.15625 9.144531 L 10.742188 9.144531 Z M 13.023438 3.894531 L 11.550781 3.894531 L 11.550781 5.683594 L 13.023438 5.683594 C 13.28125 5.695312 13.539062 5.613281 13.742188 5.445312 C 13.921875 5.285156 14.027344 5.039062 14.015625 4.785156 C 14.027344 4.53125 13.921875 4.292969 13.742188 4.132812 C 13.539062 3.964844 13.28125 3.878906 13.023438 3.894531 Z M 13.113281 8.378906 C 13.394531 8.394531 13.675781 8.300781 13.902344 8.105469 C 14.097656 7.9375 14.210938 7.671875 14.210938 7.394531 C 14.210938 7.109375 14.097656 6.851562 13.902344 6.675781 C 13.675781 6.484375 13.394531 6.386719 13.113281 6.402344 L 11.550781 6.402344 L 11.550781 8.378906 Z M 13.113281 8.378906 "/>
</g>
</svg>
