<?xml version="1.0" encoding="UTF-8"?>
<svg xmlns="http://www.w3.org/2000/svg" xmlns:xlink="http://www.w3.org/1999/xlink" width="20pt" height="12pt" viewBox="0 0 20 12" version="1.1">
<g id="surface1">
<path style=" stroke:none;fill-rule:nonzero;fill:rgb(21.960784%,50.588235%,18.431373%);fill-opacity:1;" d="M 5.484375 0 L 14.253906 0 C 17.285156 0 19.738281 2.75 19.738281 6.136719 C 19.738281 9.523438 17.285156 12.273438 14.253906 12.273438 L 5.484375 12.273438 C 2.453125 12.273438 0 9.523438 0 6.136719 C 0 2.75 2.453125 0 5.484375 0 Z M 5.484375 0 "/>
<path style=" stroke:none;fill-rule:nonzero;fill:rgb(100%,100%,100%);fill-opacity:1;" d="M 4.734375 3.925781 L 4.734375 3.125 L 9.320312 3.125 L 9.320312 3.925781 L 7.425781 3.925781 L 7.425781 9.144531 L 6.621094 9.144531 L 6.621094 3.925781 Z M 4.734375 3.925781 "/>
<path style=" stroke:none;fill-rule:nonzero;fill:rgb(100%,100%,100%);fill-opacity:1;" d="M 10.417969 3.925781 L 10.417969 3.125 L 15.003906 3.125 L 15.003906 3.925781 L 13.117188 3.925781 L 13.117188 9.144531 L 12.308594 9.144531 L 12.308594 3.925781 Z M 10.417969 3.925781 "/>
</g>
</svg>
